<svg width="629" height="433" viewBox="0 0 629 433" fill="none" xmlns="http://www.w3.org/2000/svg">
<g clip-path="url(#clip0_2055_279)">
<mask id="mask0_2055_279" style="mask-type:alpha" maskUnits="userSpaceOnUse" x="-55" y="24" width="755" height="391">
<path d="M322.5 415C530.987 415 700 327.472 700 219.5C700 111.528 530.987 24 322.5 24C114.013 24 -55 111.528 -55 219.5C-55 327.472 114.013 415 322.5 415Z" fill="url(#paint0_radial_2055_279)"/>
</mask>
<g mask="url(#mask0_2055_279)">
<path d="M43.021 24.5645V494.553" stroke="url(#paint1_linear_2055_279)" stroke-opacity="0.3" stroke-width="1.85782" stroke-dasharray="6.73 6.73"/>
<path d="M628.256 220.54H51.0312" stroke="url(#paint2_linear_2055_279)" stroke-opacity="0.3" stroke-width="1.85782" stroke-dasharray="6.73 6.73"/>
<g filter="url(#filter0_i_2055_279)">
<g style="mix-blend-mode:luminosity">
<path d="M332.728 15.5068C332.728 8.67521 332.728 5.2594 334.058 2.65007C335.227 0.354829 337.093 -1.51125 339.388 -2.68073C341.998 -4.01025 345.413 -4.01025 352.245 -4.01025H424.551C431.382 -4.01025 434.798 -4.01025 437.407 -2.68073C439.703 -1.51125 441.569 0.354829 442.738 2.65007C444.068 5.2594 444.068 8.67521 444.068 15.5068V87.8123C444.068 94.6439 444.068 98.0597 442.738 100.669C441.569 102.964 439.703 104.83 437.407 106C434.798 107.329 431.382 107.329 424.551 107.329H352.245C345.413 107.329 341.998 107.329 339.388 106C337.093 104.83 335.227 102.964 334.058 100.669C332.728 98.0597 332.728 94.6439 332.728 87.8123V15.5068Z" fill="white" fill-opacity="0.01"/>
</g>
<path d="M352.245 -3.24756H424.55C427.979 -3.24756 430.505 -3.24754 432.5 -3.08447C434.487 -2.92214 435.882 -2.60225 437.061 -2.00146C439.213 -0.905075 440.963 0.844802 442.059 2.99658C442.66 4.17578 442.98 5.57043 443.142 7.55713C443.305 9.55286 443.305 12.0782 443.305 15.5063V87.812C443.305 91.2404 443.305 93.7663 443.142 95.7622C442.98 97.7489 442.66 99.1435 442.059 100.323C440.963 102.475 439.213 104.224 437.061 105.321C435.882 105.922 434.487 106.242 432.5 106.404C430.505 106.567 427.979 106.567 424.55 106.567H352.246C348.817 106.567 346.291 106.567 344.295 106.404C342.309 106.242 340.914 105.922 339.735 105.321C337.583 104.224 335.833 102.475 334.737 100.323C334.136 99.1435 333.816 97.7489 333.654 95.7622C333.491 93.7663 333.491 91.2404 333.491 87.812V15.5073C333.491 12.0789 333.491 9.55296 333.654 7.55713C333.816 5.5704 334.136 4.17579 334.737 2.99658C335.833 0.844802 337.583 -0.905075 339.735 -2.00146C340.914 -2.60223 342.309 -2.92215 344.295 -3.08447C346.291 -3.24753 348.816 -3.24756 352.245 -3.24756Z" stroke="url(#paint3_linear_2055_279)" stroke-opacity="0.25" stroke-width="1.52477"/>
<mask id="mask1_2055_279" style="mask-type:luminance" maskUnits="userSpaceOnUse" x="374" y="37" width="29" height="29">
<path d="M402.225 37.8325H374.571V65.4866H402.225V37.8325Z" fill="white"/>
</mask>
<g mask="url(#mask1_2055_279)">
<path fill-rule="evenodd" clip-rule="evenodd" d="M384.65 38.1091C384.295 38.1091 383.99 38.1354 383.736 38.1729C383.015 38.2794 382.631 38.931 382.631 39.5768V41.5583C382.118 41.638 381.624 41.7405 381.173 41.8728L381.17 41.8734C380.76 41.9973 380.418 42.1691 380.163 42.4003C379.874 42.6627 379.748 43.0306 379.748 43.4558V58.8223C379.748 59.3029 379.898 59.7242 380.206 60.0672C380.509 60.4046 380.947 60.6468 381.491 60.8111L381.495 60.8123C381.851 60.9144 382.234 61.0012 382.631 61.075V63.7423C382.631 64.3882 383.015 65.0398 383.736 65.1463C383.99 65.1839 384.295 65.2101 384.65 65.2101C385.005 65.2101 385.309 65.1839 385.563 65.1463C386.284 65.0398 386.667 64.3883 386.667 63.7425V61.4509C386.979 61.4586 387.279 61.4621 387.564 61.4621C387.649 61.4621 387.734 61.4613 387.821 61.4598V63.7423C387.821 64.3882 388.205 65.0398 388.926 65.1463C389.179 65.1839 389.484 65.2101 389.839 65.2101C390.194 65.2101 390.499 65.1839 390.753 65.1463C391.473 65.0398 391.857 64.3883 391.857 63.7425V60.8497C394.527 60.0542 397.047 58.3526 397.047 55.1752C397.047 53.0029 395.579 51.5753 393.805 50.8543C394.369 50.5402 394.833 50.1316 395.179 49.6262C395.652 48.9356 395.893 48.0842 395.893 47.0893C395.893 44.4101 394.01 42.8612 391.857 42.0552V39.5766C391.857 38.9309 391.473 38.2794 390.753 38.1729C390.499 38.1354 390.194 38.1091 389.839 38.1091C389.484 38.1091 389.18 38.1354 388.926 38.1729C388.205 38.2794 387.821 38.931 387.821 39.5768V41.2883C387.668 41.283 387.519 41.2805 387.372 41.2805C387.147 41.2805 386.911 41.2814 386.667 41.284V39.5767C386.667 38.9309 386.284 38.2794 385.563 38.1729C385.309 38.1354 385.005 38.1091 384.65 38.1091ZM384.361 48.5182V45.58C385.232 45.4798 386.405 45.4609 387.244 45.4609C388.528 45.4609 389.406 45.6472 389.954 45.955C390.479 46.25 390.704 46.6562 390.704 47.1715C390.704 47.4864 390.615 47.7177 390.471 47.8961C390.323 48.0791 390.101 48.226 389.807 48.3392C389.212 48.5685 388.394 48.6323 387.532 48.6323C386.674 48.6323 385.815 48.5991 385.169 48.5658C384.846 48.5491 384.577 48.5325 384.389 48.52L384.361 48.5182ZM384.361 56.6309V53.2167L384.393 53.2146C384.586 53.202 384.863 53.1852 385.204 53.1683C385.886 53.1348 386.818 53.1011 387.821 53.1011C388.815 53.1011 389.777 53.2226 390.48 53.5305C390.829 53.6833 391.1 53.8761 391.283 54.1093C391.463 54.3382 391.569 54.6196 391.569 54.9751C391.569 55.3859 391.433 55.6924 391.212 55.9321C390.984 56.1783 390.653 56.3675 390.246 56.508C389.429 56.7905 388.389 56.8491 387.532 56.8491C386.684 56.8491 385.829 56.7864 385.185 56.7233C384.863 56.6918 384.595 56.6603 384.407 56.6367L384.361 56.6309Z" fill="white"/>
</g>
</g>
<g filter="url(#filter1_i_2055_279)">
<g style="mix-blend-mode:luminosity">
<path d="M103.321 244.759H16.686C9.94911 244.759 4.48779 250.22 4.48779 256.957V343.592C4.48779 350.329 9.94911 355.79 16.686 355.79H103.321C110.057 355.79 115.519 350.329 115.519 343.592V256.957C115.519 250.22 110.057 244.759 103.321 244.759Z" fill="white" fill-opacity="0.01"/>
</g>
<path d="M103.32 245.522H16.6858C10.37 245.522 5.25 250.642 5.25 256.958V343.592C5.25 349.908 10.37 355.028 16.6858 355.028H103.32C109.636 355.028 114.756 349.908 114.756 343.592V256.958C114.756 250.642 109.636 245.522 103.32 245.522Z" stroke="url(#paint4_linear_2055_279)" stroke-opacity="0.25" stroke-width="1.52477"/>
<mask id="mask2_2055_279" style="mask-type:luminance" maskUnits="userSpaceOnUse" x="46" y="286" width="28" height="29">
<path d="M73.8301 286.447H46.176V314.101H73.8301V286.447Z" fill="white"/>
</mask>
<g mask="url(#mask2_2055_279)">
<path fill-rule="evenodd" clip-rule="evenodd" d="M63.1387 286.724C57.8414 286.724 53.2688 290.476 51.5477 295.69C50.5898 295.701 49.8811 295.714 49.4015 295.724C48.8383 295.737 48.2128 296.015 48.0491 296.67C47.9822 296.937 47.9336 297.272 47.9336 297.68C47.9336 298.088 47.9822 298.422 48.0491 298.69C48.2128 299.344 48.8383 299.623 49.4016 299.635C49.7523 299.643 50.2255 299.652 50.8293 299.66C50.8209 299.864 50.8166 300.069 50.8166 300.274C50.8166 300.48 50.8209 300.685 50.8293 300.889C50.2255 300.897 49.7523 300.906 49.4015 300.914C48.8383 300.926 48.2128 301.205 48.0491 301.859C47.9822 302.127 47.9336 302.461 47.9336 302.869C47.9336 303.277 47.9822 303.612 48.0491 303.879C48.2128 304.534 48.8383 304.812 49.4015 304.825C49.8811 304.835 50.5898 304.848 51.5478 304.859C53.2688 310.073 57.8414 313.825 63.1387 313.825C67.6448 313.825 70.3441 311.999 71.4704 311.014C71.9387 310.605 72.1972 309.97 72.0129 309.332C71.819 308.66 71.4389 307.959 70.9901 307.383C70.343 306.553 69.2288 306.668 68.4561 307.147C66.9661 308.07 65.0165 308.906 63.1663 308.729C60.2382 308.447 58.4709 306.901 57.5074 304.887C61.0688 304.883 63.2729 304.848 64.3408 304.825C64.9039 304.812 65.5294 304.534 65.6932 303.879C65.7601 303.612 65.8087 303.277 65.8087 302.869C65.8087 302.461 65.7601 302.127 65.6932 301.859C65.5295 301.205 64.9039 300.926 64.3408 300.914C63.2107 300.89 60.8081 300.851 56.8712 300.851H56.5683C56.5599 300.659 56.5557 300.466 56.5557 300.274C56.5557 300.083 56.5599 299.89 56.5683 299.698H56.8712C60.8081 299.698 63.2107 299.659 64.3408 299.635C64.9039 299.623 65.5294 299.344 65.6932 298.69C65.7601 298.422 65.8087 298.088 65.8087 297.68C65.8087 297.272 65.7601 296.937 65.6932 296.67C65.5294 296.015 64.9039 295.737 64.3408 295.724C63.2729 295.701 61.0688 295.666 57.5074 295.662C58.4709 293.648 60.2382 292.102 63.1663 291.82C65.0165 291.643 66.9661 292.479 68.4561 293.402C69.2288 293.881 70.343 293.996 70.9901 293.166C71.439 292.59 71.819 291.889 72.0129 291.217C72.1972 290.579 71.9387 289.944 71.4704 289.535C70.3441 288.55 67.6448 286.724 63.1387 286.724Z" fill="white"/>
</g>
</g>
<g filter="url(#filter2_i_2055_279)">
<g style="mix-blend-mode:luminosity">
<path d="M582.411 270.557H523.862C517.424 270.557 512.204 275.776 512.204 282.215V340.764C512.204 347.202 517.424 352.421 523.862 352.421H582.411C588.849 352.421 594.069 347.202 594.069 340.764V282.215C594.069 275.776 588.849 270.557 582.411 270.557Z" fill="white" fill-opacity="0.01"/>
</g>
<path d="M582.411 271.286H523.862C517.826 271.286 512.933 276.179 512.933 282.215V340.764C512.933 346.8 517.826 351.693 523.862 351.693H582.411C588.447 351.693 593.341 346.8 593.341 340.764V282.215C593.341 276.179 588.447 271.286 582.411 271.286Z" stroke="url(#paint5_linear_2055_279)" stroke-opacity="0.25" stroke-width="1.45723"/>
<mask id="mask3_2055_279" style="mask-type:luminance" maskUnits="userSpaceOnUse" x="544" y="296" width="29" height="30">
<path d="M572.896 296.637H544.896V325.637H572.896V296.637Z" fill="white"/>
</mask>
<g mask="url(#mask3_2055_279)">
<path fill-rule="evenodd" clip-rule="evenodd" d="M552.283 296.983C551.13 296.944 549.96 297.564 549.192 298.074C548.461 298.559 548.323 299.531 548.727 300.27L554.179 310.25C552.544 310.265 551.421 310.285 550.753 310.299C550.206 310.311 549.589 310.58 549.409 311.239C549.331 311.528 549.272 311.894 549.272 312.346C549.272 312.797 549.331 313.164 549.409 313.453C549.589 314.112 550.206 314.381 550.753 314.393C551.666 314.413 553.432 314.442 556.192 314.455L556.223 315.675C553.445 315.687 551.669 315.717 550.753 315.736C550.206 315.748 549.589 316.017 549.409 316.677C549.331 316.965 549.272 317.332 549.272 317.783C549.272 318.235 549.331 318.602 549.409 318.89C549.589 319.55 550.206 319.819 550.753 319.83C551.681 319.85 553.491 319.881 556.33 319.893L556.425 323.621C556.447 324.508 557.093 325.265 557.973 325.313C558.255 325.328 558.568 325.338 558.897 325.338C559.225 325.338 559.539 325.328 559.82 325.313C560.701 325.265 561.347 324.508 561.369 323.621L561.464 319.893C564.303 319.881 566.114 319.85 567.041 319.83C567.589 319.819 568.206 319.55 568.386 318.89C568.464 318.602 568.522 318.235 568.522 317.783C568.522 317.332 568.464 316.965 568.386 316.677C568.206 316.017 567.589 315.748 567.041 315.736C566.125 315.717 564.349 315.687 561.571 315.675L561.602 314.455C564.362 314.442 566.129 314.413 567.041 314.393C567.589 314.381 568.206 314.112 568.386 313.453C568.464 313.164 568.522 312.797 568.522 312.346C568.522 311.894 568.464 311.528 568.386 311.239C568.206 310.58 567.589 310.311 567.041 310.299C566.374 310.285 565.25 310.265 563.615 310.25L569.068 300.27C569.472 299.531 569.333 298.559 568.602 298.074C567.834 297.564 566.664 296.944 565.51 296.983C564.926 297.003 564.493 297.423 564.249 297.876C563.251 299.723 560.278 305.247 558.897 308.06C557.515 305.247 554.543 299.723 553.545 297.876C553.3 297.423 552.868 297.003 552.283 296.983Z" fill="white"/>
</g>
</g>
<g filter="url(#filter3_i_2055_279)">
<g style="mix-blend-mode:luminosity">
<path d="M55.822 53.5872C55.822 46.7556 55.822 43.3398 57.1515 40.7304C58.321 38.4352 60.1871 36.5691 62.4823 35.3997C65.0917 34.0701 68.5075 34.0701 75.3391 34.0701H191.779C198.61 34.0701 202.026 34.0701 204.636 35.3997C206.931 36.5691 208.797 38.4352 209.966 40.7304C211.296 43.3398 211.296 46.7556 211.296 53.5872V170.027C211.296 176.859 211.296 180.274 209.966 182.884C208.797 185.179 206.931 187.045 204.636 188.214C202.026 189.544 198.61 189.544 191.779 189.544H75.3391C68.5075 189.544 65.0917 189.544 62.4823 188.214C60.1871 187.045 58.321 185.179 57.1515 182.884C55.822 180.274 55.822 176.859 55.822 170.027V53.5872Z" fill="white" fill-opacity="0.01"/>
</g>
<path d="M75.3386 34.8328H191.779C195.207 34.8328 197.733 34.8329 199.728 34.9959C201.715 35.1582 203.111 35.478 204.29 36.0789C206.441 37.1753 208.191 38.9253 209.287 41.077C209.888 42.2562 210.208 43.6507 210.37 45.6375C210.533 47.6332 210.534 50.1586 210.534 53.5867V170.027C210.534 173.455 210.533 175.981 210.37 177.976C210.208 179.963 209.888 181.359 209.287 182.538C208.191 184.689 206.441 186.439 204.29 187.535C203.111 188.136 201.715 188.456 199.728 188.618C197.733 188.781 195.207 188.782 191.779 188.782H75.3386C71.9105 188.782 69.3851 188.781 67.3894 188.618C65.4026 188.456 64.0081 188.136 62.8289 187.535C60.6772 186.439 58.9272 184.69 57.8308 182.538C57.2299 181.359 56.9101 179.963 56.7478 177.976C56.5848 175.981 56.5847 173.455 56.5847 170.027V53.5867C56.5847 50.1586 56.5847 47.6332 56.7478 45.6375C56.9101 43.6508 57.23 42.2562 57.8308 41.077C58.9272 38.9252 60.6771 37.1753 62.8289 36.0789C64.0081 35.4782 65.4027 35.1582 67.3894 34.9959C69.3851 34.8329 71.9105 34.8328 75.3386 34.8328Z" stroke="url(#paint6_linear_2055_279)" stroke-opacity="0.25" stroke-width="1.52477"/>
<mask id="mask4_2055_279" style="mask-type:luminance" maskUnits="userSpaceOnUse" x="119" y="97" width="29" height="29">
<path d="M147.386 97.98H119.732V125.634H147.386V97.98Z" fill="white"/>
</mask>
<g mask="url(#mask4_2055_279)">
<path fill-rule="evenodd" clip-rule="evenodd" d="M139.68 102.888C138.581 101.953 137.055 101.614 135.575 101.496V99.8018C135.575 99.0578 135.095 98.3943 134.356 98.3126C134.114 98.2859 133.845 98.2681 133.559 98.2681C133.273 98.2681 133.004 98.2859 132.762 98.3126C132.023 98.3943 131.542 99.0578 131.542 99.8018V101.63C128.443 102.162 125.493 103.856 125.493 107.469C125.493 111.353 129.013 112.667 132.1 113.691C132.297 113.754 132.546 113.818 132.82 113.888C134.062 114.204 135.84 114.657 135.84 115.852C135.84 117.311 133.739 117.568 132.695 117.568C131.238 117.568 129.654 117.208 128.369 116.53C127.677 116.166 126.828 116.022 126.282 116.584C125.871 117.006 125.493 117.624 125.493 118.468C125.493 119.264 125.817 119.941 126.466 120.5C127.82 121.668 129.743 122.045 131.542 122.145V123.812C131.542 124.556 132.023 125.22 132.762 125.302C133.004 125.328 133.273 125.346 133.559 125.346C133.845 125.346 134.114 125.328 134.356 125.302C135.095 125.22 135.575 124.556 135.575 123.812V121.916C138.684 121.318 141.625 119.613 141.625 115.984C141.625 112.162 138.25 110.411 135.025 109.432C134.839 109.374 134.578 109.315 134.278 109.248C133.061 108.974 131.214 108.557 131.214 107.529C131.214 106.219 133.544 106.046 134.423 106.046C135.519 106.046 136.684 106.367 137.751 106.807C138.572 107.146 139.568 107.14 140.033 106.378C140.346 105.862 140.551 105.275 140.551 104.727C140.551 103.974 140.261 103.361 139.68 102.888Z" fill="white"/>
</g>
</g>
</g>
</g>
<defs>
<filter id="filter0_i_2055_279" x="231.077" y="-105.661" width="314.642" height="314.642" filterUnits="userSpaceOnUse" color-interpolation-filters="sRGB">
<feFlood flood-opacity="0" result="BackgroundImageFix"/>
<feBlend mode="normal" in="SourceGraphic" in2="BackgroundImageFix" result="shape"/>
<feColorMatrix in="SourceAlpha" type="matrix" values="0 0 0 0 0 0 0 0 0 0 0 0 0 0 0 0 0 0 127 0" result="hardAlpha"/>
<feOffset dx="2.03303" dy="4.06606"/>
<feGaussianBlur stdDeviation="8.13212"/>
<feComposite in2="hardAlpha" operator="arithmetic" k2="-1" k3="1"/>
<feColorMatrix type="matrix" values="0 0 0 0 0.972549 0 0 0 0 0.972549 0 0 0 0 0.972549 0 0 0 0.06 0"/>
<feBlend mode="normal" in2="shape" result="effect1_innerShadow_2055_279"/>
</filter>
<filter id="filter1_i_2055_279" x="-97.1632" y="143.108" width="314.333" height="314.333" filterUnits="userSpaceOnUse" color-interpolation-filters="sRGB">
<feFlood flood-opacity="0" result="BackgroundImageFix"/>
<feBlend mode="normal" in="SourceGraphic" in2="BackgroundImageFix" result="shape"/>
<feColorMatrix in="SourceAlpha" type="matrix" values="0 0 0 0 0 0 0 0 0 0 0 0 0 0 0 0 0 0 127 0" result="hardAlpha"/>
<feOffset dx="2.03303" dy="4.06606"/>
<feGaussianBlur stdDeviation="8.13212"/>
<feComposite in2="hardAlpha" operator="arithmetic" k2="-1" k3="1"/>
<feColorMatrix type="matrix" values="0 0 0 0 0.972549 0 0 0 0 0.972549 0 0 0 0 0.972549 0 0 0 0.06 0"/>
<feBlend mode="normal" in2="shape" result="effect1_innerShadow_2055_279"/>
</filter>
<filter id="filter2_i_2055_279" x="415.056" y="173.409" width="276.162" height="276.162" filterUnits="userSpaceOnUse" color-interpolation-filters="sRGB">
<feFlood flood-opacity="0" result="BackgroundImageFix"/>
<feBlend mode="normal" in="SourceGraphic" in2="BackgroundImageFix" result="shape"/>
<feColorMatrix in="SourceAlpha" type="matrix" values="0 0 0 0 0 0 0 0 0 0 0 0 0 0 0 0 0 0 127 0" result="hardAlpha"/>
<feOffset dx="1.94297" dy="3.88593"/>
<feGaussianBlur stdDeviation="7.77187"/>
<feComposite in2="hardAlpha" operator="arithmetic" k2="-1" k3="1"/>
<feColorMatrix type="matrix" values="0 0 0 0 0.972549 0 0 0 0 0.972549 0 0 0 0 0.972549 0 0 0 0.06 0"/>
<feBlend mode="normal" in2="shape" result="effect1_innerShadow_2055_279"/>
</filter>
<filter id="filter3_i_2055_279" x="-45.829" y="-67.5809" width="358.776" height="358.776" filterUnits="userSpaceOnUse" color-interpolation-filters="sRGB">
<feFlood flood-opacity="0" result="BackgroundImageFix"/>
<feBlend mode="normal" in="SourceGraphic" in2="BackgroundImageFix" result="shape"/>
<feColorMatrix in="SourceAlpha" type="matrix" values="0 0 0 0 0 0 0 0 0 0 0 0 0 0 0 0 0 0 127 0" result="hardAlpha"/>
<feOffset dx="2.03303" dy="4.06606"/>
<feGaussianBlur stdDeviation="8.13212"/>
<feComposite in2="hardAlpha" operator="arithmetic" k2="-1" k3="1"/>
<feColorMatrix type="matrix" values="0 0 0 0 0.972549 0 0 0 0 0.972549 0 0 0 0 0.972549 0 0 0 0.06 0"/>
<feBlend mode="normal" in2="shape" result="effect1_innerShadow_2055_279"/>
</filter>
<radialGradient id="paint0_radial_2055_279" cx="0" cy="0" r="1" gradientUnits="userSpaceOnUse" gradientTransform="translate(332.326 225.972) rotate(76.0071) scale(194.809 360.161)">
<stop stop-color="#D9D9D9"/>
<stop offset="0.615385" stop-color="#D8D8D8" stop-opacity="0.985577"/>
<stop offset="1" stop-color="#737373" stop-opacity="0"/>
</radialGradient>
<linearGradient id="paint1_linear_2055_279" x1="-nan" y1="-nan" x2="-nan" y2="-nan" gradientUnits="userSpaceOnUse">
<stop stop-color="white"/>
<stop offset="0.770675" stop-color="white" stop-opacity="0.2"/>
</linearGradient>
<linearGradient id="paint2_linear_2055_279" x1="-nan" y1="-nan" x2="-nan" y2="-nan" gradientUnits="userSpaceOnUse">
<stop stop-color="white"/>
<stop offset="0.770675" stop-color="white" stop-opacity="0.2"/>
</linearGradient>
<linearGradient id="paint3_linear_2055_279" x1="364.331" y1="138.932" x2="492.909" y2="36.3272" gradientUnits="userSpaceOnUse">
<stop stop-color="white" stop-opacity="0.4"/>
<stop offset="0.4" stop-color="white" stop-opacity="0.01"/>
<stop offset="0.6" stop-color="white" stop-opacity="0.01"/>
<stop offset="1" stop-color="white" stop-opacity="0.1"/>
</linearGradient>
<linearGradient id="paint4_linear_2055_279" x1="36.0029" y1="387.305" x2="164.224" y2="284.985" gradientUnits="userSpaceOnUse">
<stop stop-color="white" stop-opacity="0.4"/>
<stop offset="0.4" stop-color="white" stop-opacity="0.01"/>
<stop offset="0.6" stop-color="white" stop-opacity="0.01"/>
<stop offset="1" stop-color="white" stop-opacity="0.1"/>
</linearGradient>
<linearGradient id="paint5_linear_2055_279" x1="553.136" y1="270.557" x2="588.749" y2="360.455" gradientUnits="userSpaceOnUse">
<stop stop-color="white" stop-opacity="0.4"/>
<stop offset="0.4" stop-color="white" stop-opacity="0.01"/>
<stop offset="0.6" stop-color="white" stop-opacity="0.01"/>
<stop offset="1" stop-color="white" stop-opacity="0.1"/>
</linearGradient>
<linearGradient id="paint6_linear_2055_279" x1="97.9474" y1="203.989" x2="285.806" y2="125.104" gradientUnits="userSpaceOnUse">
<stop stop-color="white" stop-opacity="0.4"/>
<stop offset="0.4" stop-color="white" stop-opacity="0.01"/>
<stop offset="0.6" stop-color="white" stop-opacity="0.01"/>
<stop offset="1" stop-color="white" stop-opacity="0.1"/>
</linearGradient>
<clipPath id="clip0_2055_279">
<rect width="629" height="433" fill="white"/>
</clipPath>
</defs>
</svg>
